<?xml version="1.0" encoding="UTF-8"?>
<svg xmlns="http://www.w3.org/2000/svg" xmlns:xlink="http://www.w3.org/1999/xlink" width="900" height="620" viewBox="0 0 900 620">
  <defs>
    <filter id="parchment" x="0" y="0" width="100%" height="100%">
      <feTurbulence type="fractalNoise" baseFrequency="0.04" numOctaves="5" result="noise"/>
      <feColorMatrix type="matrix" values="1 0 0 0 0, 0 1 0 0 0, 0 0 1 0 0, 0 0 0 0.3 0" result="coloredNoise"/>
      <feBlend in="SourceGraphic" in2="coloredNoise" mode="multiply" result="blend"/>
    </filter>
    
    <!-- Gradient definitions -->
    <linearGradient id="goldGradient" x1="0%" y1="0%" x2="100%" y2="100%">
      <stop offset="0%" style="stop-color:#e6c767;stop-opacity:1" />
      <stop offset="100%" style="stop-color:#b8860b;stop-opacity:1" />
    </linearGradient>
    
    <linearGradient id="navyGradient" x1="0%" y1="0%" x2="100%" y2="100%">
      <stop offset="0%" style="stop-color:#1a365d;stop-opacity:1" />
      <stop offset="100%" style="stop-color:#0f2342;stop-opacity:1" />
    </linearGradient>
    
    <!-- Connection paths gradients -->
    <linearGradient id="connection1" x1="0%" y1="0%" x2="100%" y2="0%">
      <stop offset="0%" style="stop-color:#8B4513;stop-opacity:0.7" />
      <stop offset="100%" style="stop-color:#CD853F;stop-opacity:0.7" />
    </linearGradient>
    
    <linearGradient id="connection2" x1="0%" y1="0%" x2="100%" y2="0%">
      <stop offset="0%" style="stop-color:#800020;stop-opacity:0.7" />
      <stop offset="100%" style="stop-color:#B22222;stop-opacity:0.7" />
    </linearGradient>
    
    <linearGradient id="connection3" x1="0%" y1="0%" x2="100%" y2="0%">
      <stop offset="0%" style="stop-color:#006400;stop-opacity:0.7" />
      <stop offset="100%" style="stop-color:#228B22;stop-opacity:0.7" />
    </linearGradient>
    
    <linearGradient id="connection4" x1="0%" y1="0%" x2="100%" y2="0%">
      <stop offset="0%" style="stop-color:#483D8B;stop-opacity:0.7" />
      <stop offset="100%" style="stop-color:#6A5ACD;stop-opacity:0.7" />
    </linearGradient>
    
    <linearGradient id="connection5" x1="0%" y1="0%" x2="100%" y2="0%">
      <stop offset="0%" style="stop-color:#2F4F4F;stop-opacity:0.7" />
      <stop offset="100%" style="stop-color:#5F9EA0;stop-opacity:0.7" />
    </linearGradient>
    
    <linearGradient id="connection6" x1="0%" y1="0%" x2="100%" y2="0%">
      <stop offset="0%" style="stop-color:#8B008B;stop-opacity:0.7" />
      <stop offset="100%" style="stop-color:#BA55D3;stop-opacity:0.7" />
    </linearGradient>
    
    <linearGradient id="connection7" x1="0%" y1="0%" x2="100%" y2="0%">
      <stop offset="0%" style="stop-color:#191970;stop-opacity:0.7" />
      <stop offset="100%" style="stop-color:#4169E1;stop-opacity:0.7" />
    </linearGradient>
    
    <!-- Icons as symbols -->
    <symbol id="trumpet-icon" viewBox="0 0 50 50">
      <path d="M10,25 C10,20 15,18 20,15 C30,10 45,5 48,5 C49,5 50,5 50,10 C50,15 50,35 50,40 C50,45 49,45 48,45 C45,45 30,40 20,35 C15,32 10,30 10,25 Z M10,25 L5,25 C5,27 3,30 0,30 L0,20 C3,20 5,23 5,25 L10,25 Z" fill="#b8860b" />
    </symbol>
    
    <symbol id="flame-icon" viewBox="0 0 50 50">
      <path d="M25,0 C25,0 20,15 15,25 C10,35 10,50 25,50 C40,50 40,35 35,25 C30,15 25,0 25,0 Z" fill="#b8860b" />
    </symbol>
    
    <symbol id="shield-icon" viewBox="0 0 50 50">
      <path d="M25,0 C25,0 0,10 0,10 C0,30 10,45 25,50 C40,45 50,30 50,10 C50,10 25,0 25,0 Z" fill="#b8860b" />
    </symbol>
    
    <symbol id="keys-icon" viewBox="0 0 50 50">
      <path d="M15,30 C6.716,30 0,23.284 0,15 C0,6.716 6.716,0 15,0 C23.284,0 30,6.716 30,15 C30,18 29,20.5 27.5,22.5 L47.5,42.5 L42.5,47.5 L37.5,42.5 L32.5,47.5 L27.5,42.5 L22.5,47.5 L17.5,42.5 L30,30 C27,31.5 25,32 22,32 L15,30 Z M10,15 C10,17.5 12.5,20 15,20 C17.5,20 20,17.5 20,15 C20,12.5 17.5,10 15,10 C12.5,10 10,12.5 10,15 Z" fill="#b8860b" />
    </symbol>
    
    <symbol id="scroll-icon" viewBox="0 0 50 50">
      <path d="M0,0 C0,0 10,0 15,0 C25,0 25,5 35,5 C40,5 50,5 50,5 L50,10 C50,10 40,10 35,10 C25,10 25,15 15,15 C10,15 0,15 0,15 L0,0 Z M0,15 L0,45 C0,45 10,45 15,45 C25,45 25,50 35,50 C40,50 50,50 50,50 L50,10 M0,15 C0,15 10,15 15,15 C25,15 25,10 35,10 C40,10 50,10 50,10" fill="none" stroke="#b8860b" stroke-width="2" />
    </symbol>
    
    <symbol id="sword-icon" viewBox="0 0 50 50">
      <path d="M30,0 L50,0 L50,20 L40,30 L30,20 L40,10 L40,10 L30,0 Z M40,30 L10,50 L0,40 L20,10 L40,30 Z" fill="#b8860b" />
    </symbol>
    
    <symbol id="rock-keys-icon" viewBox="0 0 50 50">
      <path d="M0,20 C0,20 5,0 15,0 C25,0 25,20 35,20 C45,20 50,30 50,35 C50,40 45,50 35,50 C25,50 25,40 15,40 C5,40 0,20 0,20 Z" fill="#b8860b" />
      <path d="M15,25 L20,30 M25,25 L30,30 M35,25 L40,30" stroke="#1a365d" stroke-width="2" />
    </symbol>
    
    <!-- Armor piece icons -->
    <symbol id="loins-icon" viewBox="0 0 50 50">
      <rect x="10" y="10" width="30" height="30" rx="5" fill="none" stroke="#1a365d" stroke-width="2" />
      <path d="M10,25 L40,25 M25,10 L25,40" stroke="#1a365d" stroke-width="2" />
    </symbol>
    
    <symbol id="breastplate-icon" viewBox="0 0 50 50">
      <path d="M10,10 C10,10 25,5 40,10 L40,30 C40,30 25,40 10,30 L10,10 Z" fill="none" stroke="#1a365d" stroke-width="2" />
      <path d="M20,15 C20,15 25,13 30,15 L30,25 C30,25 25,30 20,25 L20,15 Z" fill="none" stroke="#1a365d" stroke-width="2" />
    </symbol>
    
    <symbol id="feet-icon" viewBox="0 0 50 50">
      <path d="M10,30 C10,30 15,25 25,25 C35,25 40,30 40,30 L45,40 C45,40 35,45 25,45 C15,45 5,40 5,40 L10,30 Z" fill="none" stroke="#1a365d" stroke-width="2" />
    </symbol>
    
    <symbol id="shield-faith-icon" viewBox="0 0 50 50">
      <path d="M25,5 C25,5 5,15 5,15 C5,30 15,40 25,45 C35,40 45,30 45,15 C45,15 25,5 25,5 Z" fill="none" stroke="#1a365d" stroke-width="2" />
      <path d="M17,25 L33,25 M25,17 L25,33" stroke="#1a365d" stroke-width="2" />
    </symbol>
    
    <symbol id="helmet-icon" viewBox="0 0 50 50">
      <path d="M15,30 C15,20 20,10 25,10 C30,10 35,20 35,30 C40,30 45,25 45,20 C45,10 35,5 25,5 C15,5 5,10 5,20 C5,25 10,30 15,30 Z M15,30 L15,40 L35,40 L35,30" fill="none" stroke="#1a365d" stroke-width="2" />
    </symbol>
    
    <symbol id="sword-spirit-icon" viewBox="0 0 50 50">
      <path d="M25,5 L30,10 L25,15 L20,10 L25,5 Z M25,15 L25,45" fill="none" stroke="#1a365d" stroke-width="2" />
      <path d="M15,15 L35,15" stroke="#1a365d" stroke-width="2" />
    </symbol>
    
    <symbol id="word-icon" viewBox="0 0 50 50">
      <path d="M10,10 L40,10 L40,40 L10,40 Z" fill="none" stroke="#1a365d" stroke-width="2" />
      <path d="M15,20 L35,20 M15,25 L30,25 M15,30 L35,30" stroke="#1a365d" stroke-width="2" />
    </symbol>
  </defs>
  
  <!-- Background with parchment texture -->
  <rect width="100%" height="100%" fill="#faf8f3" filter="url(#parchment)" />
  
  <!-- Title -->
  <text x="450" y="50" font-family="Georgia, serif" font-size="24" fill="#1a365d" text-anchor="middle" font-weight="bold">The Armorsmiths of the Restoration</text>
  <text x="450" y="80" font-family="Georgia, serif" font-size="18" fill="#1a365d" text-anchor="middle" font-style="italic">Angelic Visitors and the Armor of God</text>
  
  <!-- Left column header -->
  <rect x="100" y="110" width="200" height="40" rx="5" fill="url(#navyGradient)" />
  <text x="200" y="136" font-family="Georgia, serif" font-size="16" fill="#faf8f3" text-anchor="middle">Angelic Visitors</text>
  
  <!-- Right column header -->
  <rect x="600" y="110" width="200" height="40" rx="5" fill="url(#navyGradient)" />
  <text x="700" y="136" font-family="Georgia, serif" font-size="16" fill="#faf8f3" text-anchor="middle">Armor of God</text>
  
  <!-- Angelic visitors boxes -->
  <g id="visitors">
    <!-- Moroni -->
    <rect x="100" y="170" width="200" height="50" rx="5" fill="url(#goldGradient)" opacity="0.8" />
    <text x="150" y="200" font-family="Georgia, serif" font-size="14" fill="#1a365d">Moroni</text>
    <text x="150" y="215" font-family="Georgia, serif" font-size="10" fill="#1a365d" font-style="italic">Book of Mormon</text>
    <use xlink:href="#trumpet-icon" x="110" y="180" width="30" height="30" />
    
    <!-- Elias -->
    <rect x="100" y="230" width="200" height="50" rx="5" fill="url(#goldGradient)" opacity="0.8" />
    <text x="150" y="260" font-family="Georgia, serif" font-size="14" fill="#1a365d">Elias</text>
    <text x="150" y="275" font-family="Georgia, serif" font-size="10" fill="#1a365d" font-style="italic">Restoration of All Things</text>
    <use xlink:href="#flame-icon" x="110" y="240" width="30" height="30" />
    
    <!-- John the Baptist -->
    <rect x="100" y="290" width="200" height="50" rx="5" fill="url(#goldGradient)" opacity="0.8" />
    <text x="150" y="320" font-family="Georgia, serif" font-size="14" fill="#1a365d">John the Baptist</text>
    <text x="150" y="335" font-family="Georgia, serif" font-size="10" fill="#1a365d" font-style="italic">Aaronic Priesthood</text>
    <use xlink:href="#shield-icon" x="110" y="300" width="30" height="30" />
    
    <!-- Elijah -->
    <rect x="100" y="350" width="200" height="50" rx="5" fill="url(#goldGradient)" opacity="0.8" />
    <text x="150" y="380" font-family="Georgia, serif" font-size="14" fill="#1a365d">Elijah</text>
    <text x="150" y="395" font-family="Georgia, serif" font-size="10" fill="#1a365d" font-style="italic">Sealing Power</text>
    <use xlink:href="#keys-icon" x="110" y="360" width="30" height="30" />
    
    <!-- Patriarchs -->
    <rect x="100" y="410" width="200" height="50" rx="5" fill="url(#goldGradient)" opacity="0.8" />
    <text x="150" y="440" font-family="Georgia, serif" font-size="14" fill="#1a365d">Patriarchs</text>
    <text x="150" y="455" font-family="Georgia, serif" font-size="10" fill="#1a365d" font-style="italic">Abrahamic Covenant</text>
    <use xlink:href="#scroll-icon" x="110" y="420" width="30" height="30" />
    
    <!-- Michael/Adam -->
    <rect x="100" y="470" width="200" height="50" rx="5" fill="url(#goldGradient)" opacity="0.8" />
    <text x="150" y="500" font-family="Georgia, serif" font-size="14" fill="#1a365d">Michael/Adam</text>
    <text x="150" y="515" font-family="Georgia, serif" font-size="10" fill="#1a365d" font-style="italic">Archangel Warrior</text>
    <use xlink:href="#sword-icon" x="110" y="480" width="30" height="30" />
    
    <!-- Peter, James, John -->
    <rect x="100" y="530" width="200" height="50" rx="5" fill="url(#goldGradient)" opacity="0.8" />
    <text x="150" y="560" font-family="Georgia, serif" font-size="14" fill="#1a365d">Peter, James, John</text>
    <text x="150" y="575" font-family="Georgia, serif" font-size="10" fill="#1a365d" font-style="italic">Melchizedek Priesthood</text>
    <use xlink:href="#rock-keys-icon" x="110" y="540" width="30" height="30" />
  </g>
  
  <!-- Armor pieces boxes -->
  <g id="armor">
    <!-- Loins girt with Truth -->
    <rect x="600" y="170" width="200" height="50" rx="5" fill="url(#goldGradient)" opacity="0.8" />
    <text x="650" y="200" font-family="Georgia, serif" font-size="14" fill="#1a365d">Loins Girt with Truth</text>
    <use xlink:href="#loins-icon" x="610" y="180" width="30" height="30" />
    
    <!-- Breastplate of Righteousness -->
    <rect x="600" y="230" width="200" height="50" rx="5" fill="url(#goldGradient)" opacity="0.8" />
    <text x="650" y="260" font-family="Georgia, serif" font-size="14" fill="#1a365d">Breastplate of Righteousness</text>
    <use xlink:href="#breastplate-icon" x="610" y="240" width="30" height="30" />
    
    <!-- Feet shod with Gospel of Peace -->
    <rect x="600" y="290" width="200" height="50" rx="5" fill="url(#goldGradient)" opacity="0.8" />
    <text x="650" y="320" font-family="Georgia, serif" font-size="14" fill="#1a365d">Feet Shod with Gospel of Peace</text>
    <use xlink:href="#feet-icon" x="610" y="300" width="30" height="30" />
    
    <!-- Shield of Faith -->
    <rect x="600" y="350" width="200" height="50" rx="5" fill="url(#goldGradient)" opacity="0.8" />
    <text x="650" y="380" font-family="Georgia, serif" font-size="14" fill="#1a365d">Shield of Faith</text>
    <use xlink:href="#shield-faith-icon" x="610" y="360" width="30" height="30" />
    
    <!-- Helmet of Salvation -->
    <rect x="600" y="410" width="200" height="50" rx="5" fill="url(#goldGradient)" opacity="0.8" />
    <text x="650" y="440" font-family="Georgia, serif" font-size="14" fill="#1a365d">Helmet of Salvation</text>
    <use xlink:href="#helmet-icon" x="610" y="420" width="30" height="30" />
    
    <!-- Sword of the Spirit -->
    <rect x="600" y="470" width="200" height="50" rx="5" fill="url(#goldGradient)" opacity="0.8" />
    <text x="650" y="500" font-family="Georgia, serif" font-size="14" fill="#1a365d">Sword of the Spirit</text>
    <use xlink:href="#sword-spirit-icon" x="610" y="480" width="30" height="30" />
    
    <!-- My word which I reveal unto you -->
    <rect x="600" y="530" width="200" height="50" rx="5" fill="url(#goldGradient)" opacity="0.8" />
    <text x="650" y="560" font-family="Georgia, serif" font-size="14" fill="#1a365d">My Word Which I Reveal</text>
    <use xlink:href="#word-icon" x="610" y="540" width="30" height="30" />
  </g>
  
  <!-- Connection paths -->
  <path d="M300,195 C400,195 500,195 600,195" stroke="url(#connection1)" stroke-width="3" fill="none" />
  <path d="M300,255 C400,255 500,255 600,255" stroke="url(#connection2)" stroke-width="3" fill="none" />
  <path d="M300,315 C400,315 500,315 600,315" stroke="url(#connection3)" stroke-width="3" fill="none" />
  <path d="M300,375 C400,375 500,375 600,375" stroke="url(#connection4)" stroke-width="3" fill="none" />
  <path d="M300,435 C400,435 500,435 600,435" stroke="url(#connection5)" stroke-width="3" fill="none" />
  <path d="M300,495 C400,495 500,495 600,495" stroke="url(#connection6)" stroke-width="3" fill="none" />
  <path d="M300,555 C400,555 500,555 600,555" stroke="url(#connection7)" stroke-width="3" fill="none" />
  
  <!-- Legend -->
  <text x="450" y="600" font-family="Georgia, serif" font-size="12" fill="#1a365d" text-anchor="middle" font-style="italic">Wherefore... take upon you my whole armor — D&C 27:15</text>
</svg>